<?xml version="1.0" encoding="UTF-8"?>
<svg version="1.1" xmlns="http://www.w3.org/2000/svg" width="500" height="500">
<path d="M0 0 C0.61956573 0.22352142 1.23913147 0.44704285 1.87747192 0.67733765 C11.4420776 4.13139638 20.89807871 7.81715561 30.28564453 11.72827148 C38.7107837 15.22541966 47.19263558 18.55728607 55.69921875 21.8515625 C59.36104976 23.27668949 63.02239657 24.70305407 66.68362427 26.12973022 C69.14236292 27.08406451 71.60320697 28.03299229 74.06613159 28.97647095 C77.55230463 30.31277313 81.03053686 31.66808856 84.5078125 33.02734375 C86.11054268 33.6330571 86.11054268 33.6330571 87.74565125 34.25100708 C89.20790886 34.82853226 89.20790886 34.82853226 90.69970703 35.41772461 C91.5575882 35.74872665 92.41546936 36.0797287 93.29934692 36.42076111 C95.25 37.625 95.25 37.625 95.86677265 39.3569994 C96.31135172 41.98808926 96.35512958 44.44763144 96.33229065 47.11724854 C96.32525116 48.23341553 96.31821167 49.34958252 96.31095886 50.49957275 C96.29801285 51.71948914 96.28506683 52.93940552 96.27172852 54.19628906 C96.26212097 55.48434448 96.25251343 56.7723999 96.24261475 58.0994873 C96.2161783 61.6281133 96.18338979 65.15665507 96.14946485 68.68521595 C96.11507765 72.37407822 96.08652663 76.06298553 96.05735779 79.75189209 C96.00124709 86.73582689 95.93988412 93.71970529 95.87663645 100.70357871 C95.80488091 108.65511949 95.73897708 116.60670539 95.67356598 124.5583005 C95.53889082 140.91392607 95.3968631 157.26947923 95.25 173.625 C91.81865471 174.76878176 89.15101711 174.7660032 85.53125 174.78613281 C84.85288086 174.79109772 84.17451172 174.79606262 83.47558594 174.80117798 C81.23371362 174.81577218 78.99191199 174.82259572 76.75 174.828125 C75.19205727 174.83387714 73.63411456 174.83963486 72.07617188 174.84539795 C68.81119456 174.85589903 65.54624182 174.86174805 62.28125 174.86523438 C58.09454405 174.87072821 53.90816183 174.89477863 49.72155762 174.92320633 C46.50454755 174.94181115 43.28761597 174.94703707 40.07055664 174.94857025 C38.52675601 174.9516004 36.98295688 174.95964112 35.43920898 174.97275543 C33.28213653 174.98977734 31.12586204 174.98794611 28.96875 174.98144531 C27.74091797 174.98509094 26.51308594 174.98873657 25.24804688 174.99249268 C22.25 174.625 22.25 174.625 20.35351562 173.32147217 C18.48875741 170.45471583 18.89614535 167.92764342 19.25 164.625 C20.40791321 162.92753601 20.40791321 162.92753601 22.25 161.625 C24.88859558 161.26423645 24.88859558 161.26423645 28.09838867 161.28442383 C29.31619019 161.28478638 30.5339917 161.28514893 31.78869629 161.28552246 C33.70893616 161.30854431 33.70893616 161.30854431 35.66796875 161.33203125 C37.43267517 161.33656311 37.43267517 161.33656311 39.23303223 161.34118652 C43.63461051 161.3569019 48.03606392 161.39878573 52.4375 161.4375 C62.275625 161.499375 72.11375 161.56125 82.25 161.625 C82.745 103.71 82.745 103.71 83.25 44.625 C79.62 43.635 75.99 42.645 72.25 41.625 C68.78170466 40.35430773 65.36230011 39.05228312 61.94140625 37.66796875 C60.97694077 37.28369217 60.01247528 36.89941559 59.01878357 36.50349426 C55.94775486 35.27874803 52.87999428 34.04606831 49.8125 32.8125 C29.34199884 24.61580907 8.80326397 16.61793599 -11.75 8.625 C-12.08 63.075 -12.41 117.525 -12.75 173.625 C-51.69 173.625 -90.63 173.625 -130.75 173.625 C-130.75 128.745 -130.75 83.865 -130.75 37.625 C-90.64411795 21.58264718 -90.64411795 21.58264718 -75.8125 15.75 C-66.83116933 12.21612968 -57.85165339 8.68207645 -48.91259766 5.04223633 C-41.97681416 2.22567094 -35.00330456 -0.46331528 -27.9375 -2.9375 C-27.21336914 -3.20183838 -26.48923828 -3.46617676 -25.74316406 -3.73852539 C-16.53640844 -6.85690768 -8.76091843 -3.18475041 0 0 Z M-30.66796875 10.265625 C-31.38440048 10.54387619 -32.10083221 10.82212738 -32.838974 11.10881042 C-35.20590154 12.02895353 -37.57174684 12.95184204 -39.9375 13.875 C-41.14874542 14.34669113 -41.14874542 14.34669113 -42.38446045 14.82791138 C-53.57023495 19.18426512 -64.73438714 23.59197411 -75.875 28.0625 C-76.49384064 28.31076538 -77.11268127 28.55903076 -77.75027466 28.81481934 C-78.66678299 29.18250427 -78.66678299 29.18250427 -79.60180664 29.55761719 C-86.35216824 32.2656672 -93.10288013 34.97173858 -99.875 37.625 C-100.51840332 37.87950928 -101.16180664 38.13401855 -101.82470703 38.39624023 C-105.84502551 39.96249587 -109.90805738 41.3602414 -114.00341797 42.71875 C-115.08058075 43.07646484 -116.15774353 43.43417969 -117.26754761 43.80273438 C-118.0867569 44.07408203 -118.90596619 44.34542969 -119.75 44.625 C-119.77327765 57.6478131 -119.79099315 70.67062117 -119.80181217 83.69345093 C-119.80700748 89.74193055 -119.81404351 95.79039582 -119.82543945 101.83886719 C-119.83638837 107.68737934 -119.84230202 113.53587779 -119.84487724 119.38439941 C-119.84671003 121.60404679 -119.85028847 123.8236935 -119.85573006 126.04333496 C-119.86310038 129.17734335 -119.86398433 132.3112967 -119.86352539 135.4453125 C-119.86712067 136.34156342 -119.87071594 137.23781433 -119.87442017 138.16122437 C-119.8615845 146.38027962 -119.26620572 154.36570854 -118.75 162.625 C-87.07 162.625 -55.39 162.625 -22.75 162.625 C-22.75 111.475 -22.75 60.325 -22.75 7.625 C-25.35172279 7.625 -28.23627136 9.3166095 -30.66796875 10.265625 Z " fill="#304357" transform="translate(267.75,208.375)"/>
<path d="M0 0 C0.886875 0.515625 1.77375 1.03125 2.6875 1.5625 C4.01122554 2.28996069 5.33551213 3.01640081 6.66015625 3.7421875 C12.1268787 6.77680998 17.47368061 9.99680366 22.8125 13.25 C23.81498779 13.85996826 24.81747559 14.46993652 25.8503418 15.09838867 C33.02478525 19.48798119 40.06898194 24.03476108 47.01953125 28.76953125 C49.51763393 30.53078058 49.51763393 30.53078058 51.6875 31.5625 C51.6875 53.0125 51.6875 74.4625 51.6875 96.5625 C48.0575 95.2425 44.4275 93.9225 40.6875 92.5625 C40.75670654 90.98952148 40.82591309 89.41654297 40.8972168 87.79589844 C41.13027815 81.91433101 41.23556187 76.03598535 41.30395508 70.15039062 C41.35093676 67.61241122 41.4317755 65.07481019 41.5480957 62.5390625 C42.63876981 48.78362673 42.63876981 48.78362673 37.99761963 36.34692383 C34.45363841 33.22267219 30.62385729 31.14308211 26.34692383 29.18847656 C18.76627979 25.6710525 11.77417044 20.99166902 4.6875 16.5625 C4.3575 36.6925 4.0275 56.8225 3.6875 77.5625 C1.3775 77.5625 -0.9325 77.5625 -3.3125 77.5625 C-6.75740705 78.5297886 -6.75740705 78.5297886 -10.21484375 79.9765625 C-10.85049255 80.22700821 -11.48614136 80.47745392 -12.14105225 80.73548889 C-14.18181388 81.54211374 -16.21570371 82.36472445 -18.25 83.1875 C-19.64963142 83.7432423 -21.04978027 84.2976832 -22.45043945 84.85083008 C-25.18303696 85.93088094 -27.91362932 87.01574501 -30.64257812 88.10498047 C-35.07810985 89.86656405 -39.53006923 91.57794516 -44 93.25 C-45.15886719 93.68699219 -46.31773437 94.12398438 -47.51171875 94.57421875 C-49.77994861 95.37458438 -51.97956302 96.00228303 -54.3125 96.5625 C-54.6848481 88.26118487 -54.96825184 79.96340341 -55.14149475 71.65577888 C-55.22469602 67.79679841 -55.33724261 63.94356215 -55.51953125 60.08789062 C-56.66227713 35.26955495 -56.66227713 35.26955495 -52.84854126 29.25292969 C-49.21409356 25.72095073 -45.04016585 23.89611457 -40.29107666 22.28094482 C-37.57548029 21.29487934 -35.34910031 19.80867183 -32.98046875 18.171875 C-25.59611721 13.45680512 -18.25540476 8.79173647 -10.47265625 4.75 C-8.47563786 3.65218157 -6.74625641 2.44060013 -4.9375 1.0625 C-2.3125 -0.4375 -2.3125 -0.4375 0 0 Z " fill="#2E495D" transform="translate(251.3125,118.4375)"/>
<path d="M0 0 C0.125 5.75 0.125 5.75 -1 8 C-0.01 8.495 -0.01 8.495 1 9 C-0.8359375 9.734375 -2.671875 10.46875 -4.5078125 11.203125 C-6.30750488 11.92302612 -6.30750488 11.92302612 -8.14355469 12.6574707 C-10.82904259 13.73167421 -13.51459708 14.80571104 -16.20019531 15.87963867 C-23.14756821 18.65794693 -30.0942309 21.43800116 -37.0390625 24.22265625 C-59.3053163 33.14893794 -59.3053163 33.14893794 -69.3125 37.0625 C-69.98055664 37.32522705 -70.64861328 37.5879541 -71.33691406 37.85864258 C-84.56482672 43 -84.56482672 43 -89 43 C-88.98747192 43.81240143 -88.97494385 44.62480286 -88.96203613 45.46182251 C-88.84080712 53.36473101 -88.72313133 61.2676826 -88.60884857 69.17069435 C-88.55007611 73.22743198 -88.49021986 77.28414555 -88.42724609 81.34082031 C-88.01118718 108.22829805 -87.94069609 135.10955273 -88 162 C-75.94339135 162.13063689 -63.88678022 162.26104243 -51.83016586 162.39115143 C-46.23199084 162.45157145 -40.63381671 162.5120716 -35.03564453 162.57275391 C-29.63457691 162.63129673 -24.23350707 162.68963034 -18.83243561 162.74781799 C-16.7703366 162.77007066 -14.70823841 162.79239911 -12.64614105 162.81480408 C-9.76116646 162.84613685 -6.87618911 162.87720182 -3.99121094 162.90820312 C-3.13597336 162.91755386 -2.28073578 162.9269046 -1.39958191 162.9365387 C-0.61156693 162.94495285 0.17644806 162.953367 0.98834229 162.96203613 C1.67046909 162.96941048 2.3525959 162.97678482 3.05539322 162.98438263 C5.03687175 163.00029612 7.01845757 163 9 163 C9.66 163.33 10.32 163.66 11 164 C11 165.32 11 166.64 11 168 C12.65 168 14.3 168 16 168 C12.8282479 170.1145014 12.08621313 170.2487713 8.46321106 170.24050903 C7.53353012 170.24325836 6.60384918 170.24600769 5.64599609 170.24884033 C4.62820068 170.24164978 3.61040527 170.23445923 2.56176758 170.22705078 C0.95177132 170.22748886 0.95177132 170.22748886 -0.69075012 170.22793579 C-4.24573799 170.22654017 -7.80051741 170.21096787 -11.35546875 170.1953125 C-13.81740708 170.1915832 -16.27934689 170.18873584 -18.74128723 170.18673706 C-25.22683802 170.17909409 -31.71229949 170.15943983 -38.19781494 170.1373291 C-44.81350496 170.116885 -51.42920938 170.10773841 -58.04492188 170.09765625 C-71.02998606 170.07619463 -84.01498829 170.04243409 -97 170 C-96.99907821 169.31639719 -96.99815641 168.63279438 -96.99720669 167.92847633 C-96.97514435 151.31248122 -96.95858497 134.69649073 -96.94818783 118.08048439 C-96.94302651 110.04518738 -96.93598692 102.00990012 -96.92456055 93.97460938 C-96.91460872 86.97292619 -96.90814538 79.97125008 -96.90591151 72.96956003 C-96.90460525 69.26053707 -96.90152475 65.55153434 -96.89426994 61.84251785 C-96.88624618 57.7070144 -96.88600919 53.57154636 -96.88647461 49.43603516 C-96.88287933 48.19957748 -96.87928406 46.96311981 -96.87557983 45.68919373 C-96.8769545 44.56736191 -96.87832916 43.44553009 -96.87974548 42.28970337 C-96.87882369 41.31075922 -96.8779019 40.33181507 -96.87695217 39.32320595 C-96.84630688 36.97465215 -96.84630688 36.97465215 -98 35 C-97.19933105 34.68474365 -96.39866211 34.3694873 -95.57373047 34.04467773 C-85.3818444 30.03141563 -75.19063318 26.01644244 -65 22 C-64.18049866 21.67700928 -63.36099731 21.35401855 -62.5166626 21.02124023 C-58.37631258 19.38928487 -54.23618563 17.75676763 -50.09643555 16.12329102 C-46.83717936 14.83737358 -43.576833 13.55427651 -40.31567383 12.27319336 C-33.65143918 9.65207664 -26.99639961 7.02332454 -20.3984375 4.23828125 C-19.47135986 3.85067627 -18.54428223 3.46307129 -17.58911133 3.0637207 C-15.98383626 2.38788888 -14.38392695 1.69905238 -12.79174805 0.99291992 C-7.94960072 -1.0382109 -4.9814648 -1.14307406 0 0 Z M0 -1 C0.66 -1 1.32 -1 2 -1 C1.67 -0.34 1.34 0.32 1 1 C0.67 0.34 0.34 -0.32 0 -1 Z " fill="#293F55" transform="translate(237,210)"/>
<path d="M0 0 C0 20.46 0 40.92 0 62 C2.31 61.67 4.62 61.34 7 61 C1.56027275 63.87007639 -4.2695597 65.89676828 -9.99707031 68.11303711 C-12.09865989 68.92729457 -14.19780285 69.74763796 -16.296875 70.56835938 C-17.65870796 71.09673115 -19.02068292 71.62473712 -20.3828125 72.15234375 C-21.60371582 72.62663818 -22.82461914 73.10093262 -24.08251953 73.58959961 C-28.64832341 75.29500797 -33.32071489 76.64441694 -38 78 C-38.43334638 70.37068754 -38.72959051 62.74456493 -38.93383789 55.10571289 C-39.01900552 52.51205955 -39.13479233 49.919215 -39.2824707 47.32836914 C-40.44177026 26.45696567 -40.44177026 26.45696567 -36.45379639 20.8109436 C-32.5357748 17.1670011 -28.03710354 14.96260015 -23.13278198 12.91879272 C-20.22801075 11.66743056 -17.65029521 10.01770445 -15 8.30078125 C-13.33516652 7.3016266 -11.66858013 6.30538514 -10 5.3125 C-8.69675781 4.52842773 -8.69675781 4.52842773 -7.3671875 3.72851562 C-1.1318193 0 -1.1318193 0 0 0 Z " fill="#7CBFBB" transform="translate(245,133)"/>
<path d="M0 0 C7.46681651 3.18313266 13.0424297 10.76305672 18 17 C21.16608791 15.61114393 23.18063806 14.00972255 25.53125 11.48828125 C26.17707031 10.81345703 26.82289063 10.13863281 27.48828125 9.44335938 C28.83528809 8.01657834 30.1764053 6.58421507 31.51171875 5.14648438 C32.15753906 4.47552734 32.80335938 3.80457031 33.46875 3.11328125 C34.05076172 2.49235596 34.63277344 1.87143066 35.23242188 1.23168945 C37 0 37 0 39.08691406 0.20092773 C41.6677327 1.27890367 43.26151969 2.79097866 45.25 4.75 C45.95640625 5.42546875 46.6628125 6.1009375 47.390625 6.796875 C49.38335575 9.52478797 49.40576684 10.68158417 49 14 C47.53125 16.03637695 47.53125 16.03637695 45.5 17.98828125 C44.778125 18.69404297 44.05625 19.39980469 43.3125 20.12695312 C42.549375 20.84818359 41.78625 21.56941406 41 22.3125 C40.236875 23.05306641 39.47375 23.79363281 38.6875 24.55664062 C36.80239968 26.38283156 34.90664431 28.19635759 33 30 C37.27364853 35.2060134 41.80019162 39.52110052 47.0234375 43.7890625 C49 46 49 46 49.5546875 48.46875 C48.79873213 51.91846184 47.25229517 53.41306443 44.75 55.875 C43.96109375 56.67679687 43.1721875 57.47859375 42.359375 58.3046875 C40 60 40 60 38.09570312 59.83081055 C35.47241022 58.79084483 34.07899572 57.41961659 32.109375 55.40234375 C31.04589844 54.32436523 31.04589844 54.32436523 29.9609375 53.22460938 C29.23132813 52.46986328 28.50171875 51.71511719 27.75 50.9375 C27.00492187 50.17888672 26.25984375 49.42027344 25.4921875 48.63867188 C23.65453306 46.76567793 21.82424276 44.88604389 20 43 C16.11096717 46.28479096 12.28263105 49.57795961 8.6875 53.1875 C8.03136719 53.84105469 7.37523437 54.49460937 6.69921875 55.16796875 C4.82236032 57.09407585 4.82236032 57.09407585 3 60 C-1.68191549 59.54261927 -3.63104174 57.80889606 -6.8125 54.4375 C-7.60269531 53.61121094 -8.39289063 52.78492188 -9.20703125 51.93359375 C-10.09455078 50.97646484 -10.09455078 50.97646484 -11 50 C-9.60652624 46.84795019 -7.97514921 44.73828227 -5.5234375 42.328125 C-4.853125 41.66425781 -4.1828125 41.00039063 -3.4921875 40.31640625 C-2.44417969 39.29353516 -2.44417969 39.29353516 -1.375 38.25 C-0.66859375 37.55261719 0.0378125 36.85523438 0.765625 36.13671875 C2.50598703 34.41987512 4.25084981 32.70788168 6 31 C4.66313021 27.97927099 3.24435929 26.05620453 0.77734375 23.87109375 C-0.15368164 23.03094727 -0.15368164 23.03094727 -1.10351562 22.17382812 C-1.74998047 21.60083984 -2.39644531 21.02785156 -3.0625 20.4375 C-4.3497742 19.2956661 -5.63254814 18.14873291 -6.91015625 16.99609375 C-7.47871338 16.49263428 -8.04727051 15.9891748 -8.63305664 15.47045898 C-10 14 -10 14 -11 11 C-9.70703125 9.0625 -9.70703125 9.0625 -7.8125 7 C-7.20019531 6.319375 -6.58789062 5.63875 -5.95703125 4.9375 C-4.07922774 3.07843705 -2.15232719 1.52715011 0 0 Z " fill="#81B867" transform="translate(285,294)"/>
<path d="M0 0 C0.33 0 0.66 0 1 0 C1 4.95 1 9.9 1 15 C2.44375 14.979375 3.8875 14.95875 5.375 14.9375 C9.75 14.875 9.75 14.875 12 16 C12 53.29 12 90.58 12 129 C8.56865471 130.14378176 5.90101711 130.1410032 2.28125 130.16113281 C1.60288086 130.16609772 0.92451172 130.17106262 0.22558594 130.17617798 C-2.01628638 130.19077218 -4.25808801 130.19759572 -6.5 130.203125 C-8.05794273 130.20887714 -9.61588544 130.21463486 -11.17382812 130.22039795 C-14.43880544 130.23089903 -17.70375818 130.23674805 -20.96875 130.24023438 C-25.15545595 130.24572821 -29.34183817 130.26977863 -33.52844238 130.29820633 C-36.74545245 130.31681115 -39.96238403 130.32203707 -43.17944336 130.32357025 C-44.72324399 130.3266004 -46.26704312 130.33464112 -47.81079102 130.34775543 C-49.96786347 130.36477734 -52.12413796 130.36294611 -54.28125 130.35644531 C-55.50908203 130.36009094 -56.73691406 130.36373657 -58.00195312 130.36749268 C-61 130 -61 130 -62.89648438 128.69647217 C-64.76124259 125.82971583 -64.35385465 123.30264342 -64 120 C-62.84208679 118.30253601 -62.84208679 118.30253601 -61 117 C-58.36140442 116.63923645 -58.36140442 116.63923645 -55.15161133 116.65942383 C-53.93380981 116.65978638 -52.7160083 116.66014893 -51.46130371 116.66052246 C-50.1811438 116.67587036 -48.90098389 116.69121826 -47.58203125 116.70703125 C-45.81732483 116.71156311 -45.81732483 116.71156311 -44.01696777 116.71618652 C-39.61538949 116.7319019 -35.21393608 116.77378573 -30.8125 116.8125 C-20.974375 116.874375 -11.13625 116.93625 -1 117 C-0.67 78.39 -0.34 39.78 0 0 Z " fill="#85B76D" transform="translate(351,253)"/>
<path d="M0 0 C5.32697239 1.45281065 8.36402802 5.08111378 12 9 C10.64827153 13.08379341 8.93063758 15.37683519 5.8125 18.3125 C2.35787377 21.65197203 -0.86183183 25.05924455 -3.98828125 28.703125 C-6.60280085 31.68824641 -9.30038639 34.59192682 -12 37.5 C-15.8187512 41.61831857 -19.59073188 45.76376062 -23.265625 50.01171875 C-26.79167065 54.05396478 -30.40364278 58.02035755 -34 62 C-38.11737677 61.47941213 -39.99002414 59.34887273 -42.8125 56.4375 C-43.69292969 55.53128906 -44.57335937 54.62507813 -45.48046875 53.69140625 C-48.15201044 50.83761986 -50.73309726 47.92906687 -53.2578125 44.9453125 C-55.84804749 42.05307702 -58.71361654 39.46009253 -61.59375 36.859375 C-63 35 -63 35 -62.97265625 33.03125 C-61.70804282 30.39029023 -60.05419095 28.76589614 -57.9375 26.75 C-57.20402344 26.04359375 -56.47054687 25.3371875 -55.71484375 24.609375 C-55.14894531 24.07828125 -54.58304688 23.5471875 -54 23 C-49.70854419 24.64419632 -47.03736494 27.81049445 -43.9375 31.0625 C-40.04576685 35.34743563 -40.04576685 35.34743563 -35 38 C-29.74105161 32.86398807 -24.77866569 27.58247083 -20 22 C-18.40793431 20.14214616 -16.81420917 18.28577566 -15.2175293 16.43188477 C-14.1030641 15.13777443 -12.99109332 13.84151015 -11.88208008 12.54272461 C-8.10867048 8.16045923 -4.14088207 4.03611837 0 0 Z " fill="#80BFBC" transform="translate(223,293)"/>
<path d="M0 0 C12.0618366 6.543076 23.44992076 14.06329608 34.88378906 21.63647461 C36.93800035 23.01421391 36.93800035 23.01421391 39 24 C39 45.45 39 66.9 39 89 C35.37 87.68 31.74 86.36 28 85 C28.10380981 82.64053223 28.10380981 82.64053223 28.2097168 80.23339844 C28.44277815 74.35183101 28.54806187 68.47348535 28.61645508 62.58789062 C28.66343676 60.04991122 28.7442755 57.51231019 28.8605957 54.9765625 C29.97594066 41.14488804 29.97594066 41.14488804 25.19934082 28.71392822 C20.77817109 24.88020107 15.84270498 22.41786719 10.49163818 20.13259888 C6.38430018 18.2655676 2.66448809 15.80777465 -1.125 13.375 C-1.80189377 12.96195618 -2.47878754 12.54891235 -3.17619324 12.12335205 C-7.88242239 9.23515522 -7.88242239 9.23515522 -9 7 C-8.34 7 -7.68 7 -7 7 C-7 6.01 -7 5.02 -7 4 C-5.68 3.34 -4.36 2.68 -3 2 C-3 2.66 -3 3.32 -3 4 C-2.34 3.67 -1.68 3.34 -1 3 C-0.67 2.01 -0.34 1.02 0 0 Z " fill="#3E5163" transform="translate(264,126)"/>
<path d="M0 0 C0.125 5.75 0.125 5.75 -1 8 C-0.01 8.495 -0.01 8.495 1 9 C-0.8359375 9.734375 -2.671875 10.46875 -4.5078125 11.203125 C-5.70776855 11.68313965 -6.90772461 12.1631543 -8.14404297 12.65771484 C-10.82784435 13.73125208 -13.51177863 14.80445624 -16.19580078 15.87744141 C-23.16917012 18.66550136 -30.14105828 21.45714625 -37.109375 24.2578125 C-73.80584935 39 -73.80584935 39 -77 39 C-76 36 -76 36 -73.34765625 34.61328125 C-72.26355469 34.18402344 -71.17945313 33.75476563 -70.0625 33.3125 C-68.98097656 32.87550781 -67.89945313 32.43851563 -66.78515625 31.98828125 C-64 31 -64 31 -62 31 C-61.84850702 27.37114676 -61.84850702 27.37114676 -63 24 C-62.67 23.67 -62.34 23.34 -62 23 C-62.99 22.67 -63.98 22.34 -65 22 C-63.95360352 21.5875 -62.90720703 21.175 -61.82910156 20.75 C-59.5513335 19.8520396 -57.27365808 18.95384621 -54.99617004 18.05517578 C-50.65926603 16.34388399 -46.32155227 14.63470593 -41.98217773 12.9296875 C-31.08961333 8.64818293 -31.08961333 8.64818293 -20.26953125 4.1875 C-19.36106445 3.80722656 -18.45259766 3.42695313 -17.51660156 3.03515625 C-15.93836687 2.36944643 -14.36550945 1.69076121 -12.79980469 0.99609375 C-7.95432981 -1.03595307 -4.98514859 -1.14391936 0 0 Z M0 -1 C0.66 -1 1.32 -1 2 -1 C1.67 -0.34 1.34 0.32 1 1 C0.67 0.34 0.34 -0.32 0 -1 Z " fill="#33485A" transform="translate(237,210)"/>
<path d="M0 0 C0.72160812 0.27764694 1.44321625 0.55529388 2.18669128 0.84135437 C3.70147799 1.42738682 5.21499801 2.01670295 6.72729492 2.60913086 C9.04753405 3.51349818 11.37582808 4.39453646 13.70507812 5.27539062 C15.17893606 5.8488472 16.65226349 6.42366952 18.125 7 C19.17177666 7.3908654 19.17177666 7.3908654 20.23970032 7.78962708 C24.97537232 9.6856883 24.97537232 9.6856883 26.18212891 12.11499023 C26.23381453 14.34347612 26.2447509 16.51991221 26.109375 18.74609375 C26.06103516 19.59042969 26.01269531 20.43476563 25.96289062 21.3046875 C25.90681641 22.17738281 25.85074219 23.05007813 25.79296875 23.94921875 C25.74076172 24.83738281 25.68855469 25.72554688 25.63476562 26.640625 C25.50545487 28.82715235 25.36868748 31.01323643 25.23046875 33.19921875 C21.60046875 32.86921875 17.97046875 32.53921875 14.23046875 32.19921875 C14.23046875 27.24921875 14.23046875 22.29921875 14.23046875 17.19921875 C12.58046875 16.86921875 10.93046875 16.53921875 9.23046875 16.19921875 C5.92592082 15.19385655 2.67689061 14.03057874 -0.58203125 12.88671875 C-1.44634766 12.59087891 -2.31066406 12.29503906 -3.20117188 11.99023438 C-8.62541434 10.09481984 -13.77281492 8.05367129 -18.76953125 5.19921875 C-19.09953125 4.20921875 -19.42953125 3.21921875 -19.76953125 2.19921875 C-19.27453125 1.74546875 -18.77953125 1.29171875 -18.26953125 0.82421875 C-16.54343788 -0.67713644 -16.54343788 -0.67713644 -16.76953125 -2.80078125 C-10.91768865 -4.75139545 -5.52449311 -2.14198034 0 0 Z " fill="#2B3E51" transform="translate(337.76953125,235.80078125)"/>
<path d="M0 0 C0.33 0 0.66 0 1 0 C1 21.12 1 42.24 1 64 C-12.0865625 64.0309375 -12.0865625 64.0309375 -25.4375 64.0625 C-28.15411865 64.071604 -30.8707373 64.08070801 -33.66967773 64.09008789 C-46.1499653 64.11386265 -58.55530469 63.99275517 -71 63 C-71 60.36 -71 57.72 -71 55 C-71.66 54.67 -72.32 54.34 -73 54 C-71.02 53.505 -71.02 53.505 -69 53 C-68.34 53.99 -67.68 54.98 -67 56 C-63.94924916 56.266487 -61.10373821 56.34757146 -58.0546875 56.29296875 C-57.1696756 56.28872391 -56.2846637 56.28447906 -55.37283325 56.28010559 C-52.53991555 56.26328259 -49.70770348 56.22562425 -46.875 56.1875 C-44.95704151 56.17245782 -43.03907189 56.15876861 -41.12109375 56.14648438 C-36.41378969 56.11336727 -31.70701456 56.06156055 -27 56 C-26.34 57.32 -25.68 58.64 -25 60 C-26.65 60.66 -28.3 61.32 -30 62 C-20.43 62 -10.86 62 -1 62 C-1.01160156 58.02710938 -1.02320313 54.05421875 -1.03515625 49.9609375 C-1.04295741 46.10856201 -1.04902815 42.2561874 -1.05493164 38.40380859 C-1.05939157 35.72865887 -1.06677832 33.05356266 -1.07543945 30.37841797 C-1.08758344 26.53091759 -1.0932463 22.68345356 -1.09765625 18.8359375 C-1.10281754 17.64197357 -1.10797882 16.44800964 -1.11329651 15.21786499 C-1.11337204 14.09715607 -1.11344757 12.97644714 -1.11352539 11.82177734 C-1.115746 10.84026703 -1.11796661 9.85875671 -1.12025452 8.84750366 C-0.99281895 5.8299601 -0.5546483 2.96635449 0 0 Z " fill="#7EB362" transform="translate(361,317)"/>
<path d="M0 0 C0.33 0 0.66 0 1 0 C1.33 49.83 1.66 99.66 2 151 C1.34 151 0.68 151 0 151 C-0.33 151.66 -0.66 152.32 -1 153 C-1.99 152.67 -2.98 152.34 -4 152 C-6.99669753 151.87933613 -9.97182356 151.81455016 -12.96948242 151.79467773 C-13.88675613 151.78477814 -14.80402985 151.77487854 -15.74909973 151.76467896 C-18.78452971 151.7330622 -21.81997535 151.70830577 -24.85546875 151.68359375 C-26.95868845 151.66302438 -29.06190402 151.64202791 -31.16511536 151.62062073 C-36.70365044 151.56539833 -42.24222284 151.51598975 -47.78082275 151.46777344 C-53.43138962 151.41755967 -59.08190223 151.36187295 -64.73242188 151.30664062 C-75.82156824 151.19905698 -86.9107617 151.09761242 -98 151 C-97.505 150.01 -97.505 150.01 -97 149 C-64.99 149 -32.98 149 0 149 C0 99.83 0 50.66 0 0 Z " fill="#1A263A" transform="translate(246,222)"/>
<path d="M0 0 C0.99 0.33 1.98 0.66 3 1 C3 2.32 3 3.64 3 5 C2.4225 5.0825 1.845 5.165 1.25 5.25 C-1.6159304 6.20531013 -2.9990764 7.78469173 -5 10 C-4.34 10.66 -3.68 11.32 -3 12 C-3.77601563 12.47308594 -4.55203125 12.94617188 -5.3515625 13.43359375 C-6.43179688 14.09488281 -7.51203125 14.75617188 -8.625 15.4375 C-9.20096924 15.79005859 -9.77693848 16.14261719 -10.37036133 16.50585938 C-13.57607088 18.47754124 -16.75734936 20.47980052 -19.91015625 22.53515625 C-20.54163574 22.94644775 -21.17311523 23.35773926 -21.82373047 23.78149414 C-23.05321637 24.58531444 -24.28017317 25.39301829 -25.50439453 26.20483398 C-29.78123881 29 -29.78123881 29 -32 29 C-32 28.34 -32 27.68 -32 27 C-31.195625 26.525625 -30.39125 26.05125 -29.5625 25.5625 C-26.7081924 24.20016328 -26.7081924 24.20016328 -26 21 C-26.99 21 -27.98 21 -29 21 C-29 20.34 -29 19.68 -29 19 C-29.79664063 19.55880859 -29.79664063 19.55880859 -30.609375 20.12890625 C-31.31578125 20.60199219 -32.0221875 21.07507813 -32.75 21.5625 C-33.44609375 22.03816406 -34.1421875 22.51382813 -34.859375 23.00390625 C-37 24 -37 24 -39.265625 23.65234375 C-39.83796875 23.43707031 -40.4103125 23.22179687 -41 23 C-33.37945223 17.82235123 -25.71650307 12.71345781 -17.875 7.875 C-17.26068115 7.48513916 -16.6463623 7.09527832 -16.01342773 6.69360352 C-12.44556381 4.52534548 -10.1341291 3.79329355 -6 4 C-3.99384866 2.67594012 -1.99330842 1.34331654 0 0 Z " fill="#2D455C" transform="translate(248,121)"/>
<path d="M0 0 C0.33 0 0.66 0 1 0 C1.495 4.455 1.495 4.455 2 9 C2.33 9 2.66 9 3 9 C3 42 3 75 3 109 C-0.43134529 110.14378176 -3.09898289 110.1410032 -6.71875 110.16113281 C-7.39711914 110.16609772 -8.07548828 110.17106262 -8.77441406 110.17617798 C-11.01628638 110.19077218 -13.25808801 110.19759572 -15.5 110.203125 C-17.05794273 110.20887714 -18.61588544 110.21463486 -20.17382812 110.22039795 C-23.43880544 110.23089903 -26.70375818 110.23674805 -29.96875 110.24023438 C-34.15545595 110.24572821 -38.34183817 110.26977863 -42.52844238 110.29820633 C-45.74545245 110.31681115 -48.96238403 110.32203707 -52.17944336 110.32357025 C-53.72324399 110.3266004 -55.26704312 110.33464112 -56.81079102 110.34775543 C-58.96786347 110.36477734 -61.12413796 110.36294611 -63.28125 110.35644531 C-64.50908203 110.36009094 -65.73691406 110.36373657 -67.00195312 110.36749268 C-70 110 -70 110 -71.90820312 108.70819092 C-73.68095211 105.93460383 -73.1806332 103.19118652 -73 100 C-71.515 99.505 -71.515 99.505 -70 99 C-70 101.64 -70 104.28 -70 107 C-69.10418213 106.99419922 -68.20836426 106.98839844 -67.28540039 106.98242188 C-52.99942207 106.92198705 -38.72019536 107.22520865 -24.4375 107.5 C-21.8652371 107.54832216 -19.29297148 107.59650033 -16.72070312 107.64453125 C-10.48043657 107.7613622 -4.24020571 107.87996543 2 108 C1.8934182 106.78574089 1.8934182 106.78574089 1.78468323 105.54695129 C1.18306901 98.30724897 0.86147629 91.14936536 0.90234375 83.88671875 C0.9037587 82.90629105 0.90517365 81.92586334 0.90663147 80.91572571 C0.91214831 77.839617 0.92468398 74.76358603 0.9375 71.6875 C0.94252579 69.57877711 0.94708678 67.47005305 0.95117188 65.36132812 C0.96209027 60.24085629 0.97929526 55.12044124 1 50 C0.67 50 0.34 50 0 50 C0 33.5 0 17 0 0 Z " fill="#7EA16A" transform="translate(360,273)"/>
<path d="M0 0 C0 0.66 0 1.32 0 2 C0.99 2 1.98 2 3 2 C2.8125 3.875 2.8125 3.875 2 6 C0.33333333 6.66666667 -1.33333333 7.33333333 -3 8 C-3.12375 8.61875 -3.2475 9.2375 -3.375 9.875 C-4.17044886 12.57952611 -5.04448582 12.86431212 -7.4375 14.25 C-11 16 -11 16 -13 16 C-13 32.83 -13 49.66 -13 67 C-13.33 67 -13.66 67 -14 67 C-14 49.84 -14 32.68 -14 15 C-14.33 15.33 -14.66 15.66 -15 16 C-15.99 16 -16.98 16 -18 16 C-18 16.66 -18 17.32 -18 18 C-18.66 18.33 -19.32 18.66 -20 19 C-19.99476318 19.88034912 -19.98952637 20.76069824 -19.98413086 21.66772461 C-19.81727622 53.97627512 -19.81727622 53.97627512 -21 68 C-21.33 68 -21.66 68 -22 68 C-22.18559894 60.52453966 -22.32762188 53.04957801 -22.41449738 45.57227802 C-22.4562017 42.09984623 -22.51272746 38.6289935 -22.60351562 35.1574707 C-22.70731173 31.16342302 -22.74592653 27.1710255 -22.78125 23.17578125 C-22.82254028 21.93290848 -22.86383057 20.69003571 -22.90637207 19.40950012 C-22.91073944 11.01930299 -22.91073944 11.01930299 -20.31518555 8.11434937 C-15.85726058 5.20911266 -11.12749857 4.19641633 -6 3 C-1.61538462 0 -1.61538462 0 0 0 Z " fill="#263F52" transform="translate(219,140)"/>
<path d="M0 0 C2.26084944 1.19087524 4.50706636 2.40117708 6.75 3.625 C7.38421875 3.95628906 8.0184375 4.28757813 8.671875 4.62890625 C13.07068065 7.05741353 15.58776541 9.44013819 18 14 C17.75 16.6875 17.75 16.6875 17 19 C17 19.99 17 20.98 17 22 C10.78322478 20.59997555 5.99690916 17.86941466 0.625 14.5 C-0.19355469 14.00113281 -1.01210938 13.50226563 -1.85546875 12.98828125 C-7.8643176 9.2713648 -7.8643176 9.2713648 -9 7 C-8.34 7 -7.68 7 -7 7 C-7 6.01 -7 5.02 -7 4 C-5.68 3.34 -4.36 2.68 -3 2 C-3 2.66 -3 3.32 -3 4 C-2.34 3.67 -1.68 3.34 -1 3 C-0.67 2.01 -0.34 1.02 0 0 Z " fill="#324558" transform="translate(264,126)"/>
<path d="M0 0 C0.66 0.33 1.32 0.66 2 1 C1.67 1.99 1.34 2.98 1 4 C1.66 4 2.32 4 3 4 C3.33 4.66 3.66 5.32 4 6 C8.05912626 7.35304209 9.77149591 6.15216503 13.6875 4.5625 C14.86699219 4.08941406 16.04648438 3.61632812 17.26171875 3.12890625 C18.16535156 2.75636719 19.06898438 2.38382813 20 2 C20.495 3.485 20.495 3.485 21 5 C-23.71615721 23 -23.71615721 23 -27 23 C-26 20 -26 20 -23.34765625 18.61328125 C-22.26355469 18.18402344 -21.17945313 17.75476563 -20.0625 17.3125 C-18.98097656 16.87550781 -17.89945313 16.43851563 -16.78515625 15.98828125 C-14 15 -14 15 -12 15 C-11.84850702 11.37114676 -11.84850702 11.37114676 -13 8 C-12.67 7.67 -12.34 7.34 -12 7 C-12.99 6.67 -13.98 6.34 -15 6 C-12.54524486 4.96971956 -10.08685649 3.95054496 -7.625 2.9375 C-6.92632812 2.64294922 -6.22765625 2.34839844 -5.5078125 2.04492188 C-3.69495092 1.30408902 -1.84876857 0.64603036 0 0 Z " fill="#334759" transform="translate(187,226)"/>
<path d="M0 0 C2.69178817 1.39710771 5.29350897 2.87132092 7.87890625 4.45703125 C8.76191406 4.99585937 9.64492188 5.5346875 10.5546875 6.08984375 C11.55048828 6.70472656 11.55048828 6.70472656 12.56640625 7.33203125 C12.23640625 8.65203125 11.90640625 9.97203125 11.56640625 11.33203125 C9.56640625 11.33203125 7.56640625 11.33203125 5.56640625 11.33203125 C5.56640625 12.32203125 5.56640625 13.31203125 5.56640625 14.33203125 C4.90640625 14.33203125 4.24640625 14.33203125 3.56640625 14.33203125 C3.56640625 35.12203125 3.56640625 55.91203125 3.56640625 77.33203125 C0.59640625 77.00203125 -2.37359375 76.67203125 -5.43359375 76.33203125 C-5.43359375 75.67203125 -5.43359375 75.01203125 -5.43359375 74.33203125 C-2.46359375 73.83703125 -2.46359375 73.83703125 0.56640625 73.33203125 C0.56640625 72.58700851 0.56640625 71.84198578 0.56640625 71.0743866 C0.56640625 50.82693481 0.56640625 30.57948303 0.56640625 10.33203125 C1.22640625 10.33203125 1.88640625 10.33203125 2.56640625 10.33203125 C2.89640625 9.34203125 3.22640625 8.35203125 3.56640625 7.33203125 C3.89640625 7.00203125 4.22640625 6.67203125 4.56640625 6.33203125 C2.91640625 6.66203125 1.26640625 6.99203125 -0.43359375 7.33203125 C-0.76359375 6.01203125 -1.09359375 4.69203125 -1.43359375 3.33203125 C-2.15546875 3.62078125 -2.87734375 3.90953125 -3.62109375 4.20703125 C-7.52734375 5.76953125 -7.52734375 5.76953125 -11.43359375 7.33203125 C-10.29723227 3.92294682 -9.59977595 3.42162754 -6.68359375 1.51953125 C-6.008125 1.05933594 -5.33265625 0.59914063 -4.63671875 0.125 C-2.43359375 -0.66796875 -2.43359375 -0.66796875 0 0 Z " fill="#2B404F" transform="translate(251.43359375,118.66796875)"/>
<path d="M0 0 C2.46800047 1.15173355 4.04783565 2.04783565 6 4 C6.125 6.625 6.125 6.625 6 9 C6.99 9.33 7.98 9.66 9 10 C10.6875 11.3125 10.6875 11.3125 12 13 C12 14.32 12 15.64 12 17 C6.77487721 18.46670113 2.4185766 19.22577402 -3 19 C-3.33 17.68 -3.66 16.36 -4 15 C-5.32 14.67 -6.64 14.34 -8 14 C-8.86325845 11.58287634 -9.1132654 10.35009306 -8.3125 7.875 C-6.75572749 5.65103927 -5.41246872 5.1696818 -3 4 C-1.26574227 1.96682993 -1.26574227 1.96682993 0 0 Z " fill="#7EB665" transform="translate(286,295)"/>
<path d="M0 0 C0.33 0.66 0.66 1.32 1 2 C0.0625 4.125 0.0625 4.125 -1 6 C-0.34 6 0.32 6 1 6 C0.67 7.32 0.34 8.64 0 10 C-0.66 9.67 -1.32 9.34 -2 9 C-4.23601706 9.73288477 -6.44171775 10.55990615 -8.625 11.4375 C-9.81351563 11.91058594 -11.00203125 12.38367188 -12.2265625 12.87109375 C-13.59941406 13.42990234 -13.59941406 13.42990234 -15 14 C-15 13.34 -15 12.68 -15 12 C-15.99 12.33 -16.98 12.66 -18 13 C-18 12.01 -18 11.02 -18 10 C-18.66 10 -19.32 10 -20 10 C-19.73046875 8.1328125 -19.73046875 8.1328125 -19 6 C-17.36328125 4.8046875 -17.36328125 4.8046875 -15.3125 3.875 C-14.590625 3.54757813 -13.86875 3.22015625 -13.125 2.8828125 C-8.61426384 1.00886696 -4.92752739 -0.28985455 0 0 Z " fill="#273E54" transform="translate(208,220)"/>
<path d="M0 0 C0.66 0.33 1.32 0.66 2 1 C-1.61328125 5.6875 -1.61328125 5.6875 -3 7 C-3.99 7 -4.98 7 -6 7 C-6.144375 7.61875 -6.28875 8.2375 -6.4375 8.875 C-7 11 -7 11 -8 13 C-7.34 13.33 -6.68 13.66 -6 14 C-3 16 -3 16 -2 19 C-0.35 19 1.3 19 3 19 C3 19.66 3 20.32 3 21 C3.66 21.33 4.32 21.66 5 22 C4.67 22.66 4.34 23.32 4 24 C4.66 24 5.32 24 6 24 C7.625 26.75 7.625 26.75 9 30 C8.375 32.0625 8.375 32.0625 7 34 C6.54625 34.86625 6.0925 35.7325 5.625 36.625 C3.82954399 39.24912802 2.80223367 39.6813018 0 41 C-3.62551755 44.11963138 -5.58443583 46.15175132 -6 51 C-7.65 50.67 -9.3 50.34 -11 50 C-9.60652624 46.84795019 -7.97514921 44.73828227 -5.5234375 42.328125 C-4.853125 41.66425781 -4.1828125 41.00039063 -3.4921875 40.31640625 C-2.44417969 39.29353516 -2.44417969 39.29353516 -1.375 38.25 C-0.66859375 37.55261719 0.0378125 36.85523438 0.765625 36.13671875 C2.50598703 34.41987512 4.25084981 32.70788168 6 31 C4.66313021 27.97927099 3.24435929 26.05620453 0.77734375 23.87109375 C-0.15368164 23.03094727 -0.15368164 23.03094727 -1.10351562 22.17382812 C-1.74998047 21.60083984 -2.39644531 21.02785156 -3.0625 20.4375 C-4.3497742 19.2956661 -5.63254814 18.14873291 -6.91015625 16.99609375 C-7.47871338 16.49263428 -8.04727051 15.9891748 -8.63305664 15.47045898 C-10 14 -10 14 -11 11 C-9.70703125 9.0625 -9.70703125 9.0625 -7.8125 7 C-7.20019531 6.319375 -6.58789062 5.63875 -5.95703125 4.9375 C-4.07922774 3.07843705 -2.15232719 1.52715011 0 0 Z " fill="#82AA6E" transform="translate(285,294)"/>
<path d="M0 0 C0.33 0.66 0.66 1.32 1 2 C-0.65 2.33 -2.3 2.66 -4 3 C-4.33 5.31 -4.66 7.62 -5 10 C-5.86625 9.9175 -6.7325 9.835 -7.625 9.75 C-11.76876845 10.05694581 -13.68729626 11.59076092 -17 14 C-17.66 14 -18.32 14 -19 14 C-18.67 11.36 -18.34 8.72 -18 6 C-18.99 6 -19.98 6 -21 6 C-21 5.34 -21 4.68 -21 4 C-18.81877494 3.12569481 -16.63250158 2.27591499 -14.4375 1.4375 C-13.21933594 0.96183594 -12.00117188 0.48617187 -10.74609375 -0.00390625 C-6.67335348 -1.08685596 -4.06670702 -1.02052295 0 0 Z M-18 5 C-17.34 5.66 -16.68 6.32 -16 7 C-16 6.34 -16 5.68 -16 5 C-16.66 5 -17.32 5 -18 5 Z " fill="#263C50" transform="translate(255,204)"/>
<path d="M0 0 C0.66 0.33 1.32 0.66 2 1 C-0.75 7.75 -0.75 7.75 -3 10 C-3 10.66 -3 11.32 -3 12 C-1.68 11.67 -0.36 11.34 1 11 C-2.82774727 15.18659858 -6.94607874 18.37820862 -12 21 C-12.66 21 -13.32 21 -14 21 C-14 20.34 -14 19.68 -14 19 C-13.195625 18.525625 -12.39125 18.05125 -11.5625 17.5625 C-8.7081924 16.20016328 -8.7081924 16.20016328 -8 13 C-8.99 13 -9.98 13 -11 13 C-11 12.34 -11 11.68 -11 11 C-11.79664063 11.55880859 -11.79664063 11.55880859 -12.609375 12.12890625 C-13.31578125 12.60199219 -14.0221875 13.07507813 -14.75 13.5625 C-15.44609375 14.03816406 -16.1421875 14.51382813 -16.859375 15.00390625 C-19.4473725 16.20817516 -20.3480042 15.79899873 -23 15 C-18.62107565 12.06361193 -14.23662187 9.13593481 -9.84228516 6.22265625 C-8.32339325 5.21462409 -6.80773751 4.20171747 -5.29296875 3.1875 C-3.56856922 2.06136153 -1.79034549 1.01803959 0 0 Z " fill="#2B4759" transform="translate(230,129)"/>
<path d="M0 0 C2.412744 1.01895015 3.50714773 2.32314365 5.13574219 4.35888672 C5.65652344 4.99955078 6.17730469 5.64021484 6.71386719 6.30029297 C7.10058594 6.79400391 7.48730469 7.28771484 7.88574219 7.79638672 C6.89574219 7.79638672 5.90574219 7.79638672 4.88574219 7.79638672 C4.88574219 7.13638672 4.88574219 6.47638672 4.88574219 5.79638672 C3.89574219 6.12638672 2.90574219 6.45638672 1.88574219 6.79638672 C1.22574219 6.13638672 0.56574219 5.47638672 -0.11425781 4.79638672 C-0.44425781 5.45638672 -0.77425781 6.11638672 -1.11425781 6.79638672 C-0.45425781 6.79638672 0.20574219 6.79638672 0.88574219 6.79638672 C0.55574219 7.45638672 0.22574219 8.11638672 -0.11425781 8.79638672 C-2.39081666 9.35773 -4.66750115 9.6888504 -6.98535156 10.03857422 C-9.29349531 10.59925858 -9.29349531 10.59925858 -10.26660156 12.81982422 C-10.54632813 13.47208984 -10.82605469 14.12435547 -11.11425781 14.79638672 C-13.23925781 15.54638672 -13.23925781 15.54638672 -15.11425781 15.79638672 C-15.11425781 16.45638672 -15.11425781 17.11638672 -15.11425781 17.79638672 C-17.42425781 18.12638672 -19.73425781 18.45638672 -22.11425781 18.79638672 C-21.11425781 16.79638672 -21.11425781 16.79638672 -19.27246094 15.89086914 C-16.83915266 14.65687355 -15.43878334 13.27531091 -13.58300781 11.28466797 C-12.9371875 10.60984375 -12.29136719 9.93501953 -11.62597656 9.23974609 C-10.27896972 7.81296506 -8.93785251 6.38060179 -7.60253906 4.94287109 C-6.95671875 4.27191406 -6.31089844 3.60095703 -5.64550781 2.90966797 C-4.77249023 1.97828003 -4.77249023 1.97828003 -3.88183594 1.02807617 C-2.11425781 -0.20361328 -2.11425781 -0.20361328 0 0 Z " fill="#7CB264" transform="translate(324.1142578125,294.20361328125)"/>
<path d="M0 0 C-0.33 0.99 -0.66 1.98 -1 3 C-0.34 3 0.32 3 1 3 C1.33 3.66 1.66 4.32 2 5 C6.05912626 6.35304209 7.77149591 5.15216503 11.6875 3.5625 C13.45673828 2.85287109 13.45673828 2.85287109 15.26171875 2.12890625 C16.16535156 1.75636719 17.06898438 1.38382813 18 1 C18.33 1.99 18.66 2.98 19 4 C15.3993541 5.50855339 11.79394041 7.00535824 8.1875 8.5 C7.16333984 8.92925781 6.13917969 9.35851562 5.08398438 9.80078125 C4.10107422 10.20683594 3.11816406 10.61289063 2.10546875 11.03125 C1.19949951 11.40830078 0.29353027 11.78535156 -0.63989258 12.17382812 C-3 13 -3 13 -6 13 C-5.67 10.69 -5.34 8.38 -5 6 C-4.34 6 -3.68 6 -3 6 C-3 5.34 -3 4.68 -3 4 C-5.97 3.505 -5.97 3.505 -9 3 C-6.40821726 0.40821726 -3.54324677 -1.77162338 0 0 Z " fill="#30445A" transform="translate(189,227)"/>
<path d="M0 0 C0.66 0 1.32 0 2 0 C2 2.64 2 5.28 2 8 C3.01763428 7.99419922 4.03526855 7.98839844 5.08374023 7.98242188 C15.75320081 7.94096881 26.39920344 8.15576185 37.0625 8.5 C38.62303946 8.54841653 40.18358635 8.59659447 41.74414062 8.64453125 C45.49618275 8.76028934 49.24811608 8.87920983 53 9 C52.67 9.66 52.34 10.32 52 11 C44.93423331 11.07595253 37.86857156 11.12855861 30.80249023 11.16479492 C28.39782782 11.17989816 25.99319302 11.20038208 23.58862305 11.22631836 C20.13583569 11.26263351 16.68341196 11.279711 13.23046875 11.29296875 C11.61316109 11.31619453 11.61316109 11.31619453 9.96318054 11.33988953 C8.96236954 11.34011612 7.96155853 11.34034271 6.93041992 11.34057617 C6.04883713 11.34723801 5.16725433 11.35389984 4.25895691 11.36076355 C2 11 2 11 0.20747375 9.70527649 C-1.75461082 6.93428732 -1.24262779 4.27547513 -1 1 C-0.67 0.67 -0.34 0.34 0 0 Z " fill="#8DAD76" transform="translate(288,372)"/>
<path d="M0 0 C0.33 0 0.66 0 1 0 C1 20.46 1 40.92 1 62 C4.465 61.505 4.465 61.505 8 61 C-1.61538462 66 -1.61538462 66 -6 66 C-6.495 63.525 -6.495 63.525 -7 61 C-6.195625 61.020625 -5.39125 61.04125 -4.5625 61.0625 C-2.06645115 61.29633621 -2.06645115 61.29633621 -1 60 C-0.91143105 58.16395612 -0.89311357 56.32448383 -0.90234375 54.48632812 C-0.90564697 53.30840698 -0.9089502 52.13048584 -0.91235352 50.91687012 C-0.92065186 49.63461548 -0.9289502 48.35236084 -0.9375 47.03125 C-0.94328405 45.03667482 -0.94906272 43.04209961 -0.95451355 41.0475235 C-0.96548152 37.53166325 -0.98294891 34.01583515 -1 30.5 C-1.02032765 26.30855806 -1.03957081 22.11713599 -1.05102539 17.92565918 C-1.05860627 15.31146524 -1.07072854 12.69728007 -1.08764648 10.08312988 C-1.09094971 8.90520874 -1.09425293 7.7272876 -1.09765625 6.51367188 C-1.10289307 5.47078003 -1.10812988 4.42788818 -1.11352539 3.35339355 C-1 1 -1 1 0 0 Z " fill="#8AC0C3" transform="translate(244,133)"/>
<path d="M0 0 C0 0.99 0 1.98 0 3 C-0.99 3 -1.98 3 -3 3 C-3.33 3.99 -3.66 4.98 -4 6 C-4.61875 5.814375 -5.2375 5.62875 -5.875 5.4375 C-8.04160178 4.76313824 -8.04160178 4.76313824 -10 6 C-11.99960012 6.039992 -14.00047242 6.04346799 -16 6 C-16.33 5.01 -16.66 4.02 -17 3 C-16.505 2.54625 -16.01 2.0925 -15.5 1.625 C-13.77390663 0.12364481 -13.77390663 0.12364481 -14 -2 C-8.96396997 -3.67867668 -4.72750717 -2.08566493 0 0 Z " fill="#2A3C50" transform="translate(335,235)"/>
<path d="M0 0 C8.20998279 2.11703959 8.20998279 2.11703959 11.125 5.375 C12.14290532 8.42871596 11.8842355 9.94536826 11 13 C11 13.99 11 14.98 11 16 C8.525 15.01 8.525 15.01 6 14 C6 13.34 6 12.68 6 12 C5.01 11.67 4.02 11.34 3 11 C1.6875 8.6875 1.6875 8.6875 1 6 C1.875 3.6875 1.875 3.6875 3 2 C2.01 1.67 1.02 1.34 0 1 C0 0.67 0 0.34 0 0 Z " fill="#2C3F52" transform="translate(270,132)"/>
<path d="M0 0 C5.85659906 1.66153012 11.4590134 3.47041916 17 6 C16.67 6.66 16.34 7.32 16 8 C11.91621717 7.25749403 7.98060777 6.17076699 4 5 C4.309375 6.175625 4.309375 6.175625 4.625 7.375 C4.74875 8.24125 4.8725 9.1075 5 10 C3 12 3 12 1 13 C-1.22189824 10.77810176 -1.92598892 8.91517292 -3 6 C-2.505 5.566875 -2.01 5.13375 -1.5 4.6875 C0.33218192 3.00259517 0.33218192 3.00259517 0 0 Z " fill="#31465A" transform="translate(268,209)"/>
<path d="M0 0 C0.125 5.75 0.125 5.75 -1 8 C-0.34 8.33 0.32 8.66 1 9 C-1.64 9.99 -4.28 10.98 -7 12 C-7 11.34 -7 10.68 -7 10 C-7.99 9.67 -8.98 9.34 -10 9 C-9.67 8.34 -9.34 7.68 -9 7 C-8.34 7 -7.68 7 -7 7 C-7.33 6.401875 -7.66 5.80375 -8 5.1875 C-9 3 -9 3 -9 0 C-5.93109813 -1.53445094 -3.29905734 -0.54984289 0 0 Z M0 -1 C0.66 -1 1.32 -1 2 -1 C1.67 -0.34 1.34 0.32 1 1 C0.67 0.34 0.34 -0.32 0 -1 Z " fill="#35475A" transform="translate(237,210)"/>
<path d="M0 0 C0.66 0.33 1.32 0.66 2 1 C2 17.83 2 34.66 2 52 C1.01 52.495 1.01 52.495 0 53 C-0.9971257 50.00862289 -1.09229826 48.18249007 -1.02172852 45.06958008 C-1.00163223 44.06876907 -0.98153595 43.06795807 -0.96083069 42.03681946 C-0.93379562 40.95861435 -0.90676056 39.88040924 -0.87890625 38.76953125 C-0.85529526 37.66397385 -0.83168427 36.55841644 -0.80735779 35.4193573 C-0.73070304 31.88360817 -0.64668612 28.34807705 -0.5625 24.8125 C-0.50928115 22.41732842 -0.45654074 20.02214617 -0.40429688 17.62695312 C-0.27508539 11.7511668 -0.13982681 5.87554277 0 0 Z " fill="#646C7C" transform="translate(147,320)"/>
<path d="M0 0 C3.37462715 0.54723683 5.08235 1.0549 8 3 C6.35 3 4.7 3 3 3 C3 3.66 3 4.32 3 5 C2.34 5 1.68 5 1 5 C1 5.66 1 6.32 1 7 C-2 8 -2 8 -4.1875 7.0625 C-4.785625 6.711875 -5.38375 6.36125 -6 6 C-6 6.99 -6 7.98 -6 9 C-8.97 8.01 -11.94 7.02 -15 6 C-15 5.34 -15 4.68 -15 4 C-14.278125 4.020625 -13.55625 4.04125 -12.8125 4.0625 C-9.99164706 4.08356542 -9.99164706 4.08356542 -7.25 3.4375 C-6.5075 3.293125 -5.765 3.14875 -5 3 C-4.67 3.33 -4.34 3.66 -4 4 C-3.67 3.34 -3.34 2.68 -3 2 C-2.01 2 -1.02 2 0 2 C0 1.34 0 0.68 0 0 Z " fill="#37495E" transform="translate(335,236)"/>
<path d="M0 0 C5.94 3.465 5.94 3.465 12 7 C10 8 10 8 8.3125 7.5625 C5.18769 6.80241108 2.20240799 6.93841523 -1 7 C-1.33 7.66 -1.66 8.32 -2 9 C-4.5625 9.625 -4.5625 9.625 -7 10 C-7.66 9.01 -8.32 8.02 -9 7 C-8.34 7 -7.68 7 -7 7 C-7 6.01 -7 5.02 -7 4 C-5.68 3.34 -4.36 2.68 -3 2 C-3 2.66 -3 3.32 -3 4 C-2.34 3.67 -1.68 3.34 -1 3 C-0.67 2.01 -0.34 1.02 0 0 Z " fill="#3D4E61" transform="translate(264,126)"/>
<path d="M0 0 C0.66 0.33 1.32 0.66 2 1 C2 1.99 2 2.98 2 4 C2.66 4.33 3.32 4.66 4 5 C4.33 4.34 4.66 3.68 5 3 C5 7.61538462 5 7.61538462 4 10 C0.70173093 11.78284814 -1.1774751 12 -5 12 C-5.33 11.01 -5.66 10.02 -6 9 C-5.01 8.67 -4.02 8.34 -3 8 C-2.87625 7.236875 -2.7525 6.47375 -2.625 5.6875 C-2 3 -2 3 0 0 Z " fill="#2A4357" transform="translate(232,129)"/>
<path d="M0 0 C0.53238281 0.37511719 1.06476563 0.75023437 1.61328125 1.13671875 C0.93359375 3.02734375 0.93359375 3.02734375 -0.38671875 5.13671875 C-2.76953125 6.18359375 -2.76953125 6.18359375 -5.51171875 6.88671875 C-6.42179688 7.1290625 -7.331875 7.37140625 -8.26953125 7.62109375 C-9.31753906 7.87632812 -9.31753906 7.87632812 -10.38671875 8.13671875 C-10.38671875 7.47671875 -10.38671875 6.81671875 -10.38671875 6.13671875 C-12.03671875 6.46671875 -13.68671875 6.79671875 -15.38671875 7.13671875 C-14.38671875 4.13671875 -14.38671875 4.13671875 -11.8046875 2.6796875 C-10.73863281 2.23238281 -9.67257813 1.78507813 -8.57421875 1.32421875 C-7.51589844 0.86402344 -6.45757812 0.40382812 -5.3671875 -0.0703125 C-2.38671875 -0.86328125 -2.38671875 -0.86328125 0 0 Z " fill="#27384A" transform="translate(164.38671875,236.86328125)"/>
<path d="M0 0 C-0.45375 0.433125 -0.9075 0.86625 -1.375 1.3125 C-3.20024334 3.10798342 -3.20024334 3.10798342 -5 6 C-5.66 6 -6.32 6 -7 6 C-6.67 6.99 -6.34 7.98 -6 9 C-11.85659906 7.33846988 -17.4590134 5.52958084 -23 3 C-18.97034295 1.65678098 -15.74720855 2.44730631 -11.59375 3.0390625 C-8.96000631 3.27124877 -8.96000631 3.27124877 -7.28515625 1.5703125 C-6.86105469 1.05210937 -6.43695313 0.53390625 -6 0 C-2.52631579 -1.26315789 -2.52631579 -1.26315789 0 0 Z " fill="#4B5B69" transform="translate(325,232)"/>
<path d="M0 0 C0 0.66 0 1.32 0 2 C-10.32852414 2.06672532 -20.61476083 1.87722602 -30.9375 1.5 C-32.31444473 1.45158354 -33.69139787 1.4034056 -35.06835938 1.35546875 C-38.37899603 1.23930606 -41.6895295 1.12078961 -45 1 C-45 0.67 -45 0.34 -45 0 C-39.55586012 -0.16819852 -34.11156683 -0.32869423 -28.66699219 -0.48217773 C-26.81634471 -0.53541864 -24.96575564 -0.59073291 -23.11523438 -0.64819336 C-20.44934681 -0.73060655 -17.78333551 -0.80546525 -15.1171875 -0.87890625 C-14.29507782 -0.90594131 -13.47296814 -0.93297638 -12.62594604 -0.96083069 C-8.2751944 -1.07287432 -4.28843113 -0.89568498 0 0 Z " fill="#8BB073" transform="translate(350,371)"/>
<path d="M0 0 C9.2839388 -0.07025156 18.53598125 0.13927357 27.8125 0.5 C29.08931641 0.54769531 30.36613281 0.59539062 31.68164062 0.64453125 C34.78784841 0.76086862 37.89395572 0.87938938 41 1 C40.34 1.66 39.68 2.32 39 3 C36.40730017 2.98252112 33.9474846 2.86231408 31.375 2.625 C30.66859375 2.56828125 29.9621875 2.5115625 29.234375 2.453125 C27.48878639 2.31159079 25.74426327 2.15702613 24 2 C23.67 2.66 23.34 3.32 23 4 C23 3.34 23 2.68 23 2 C22.14341797 2.10828125 22.14341797 2.10828125 21.26953125 2.21875 C14.16333588 3.03217777 7.14697766 3.10081943 0 3 C0 2.01 0 1.02 0 0 Z " fill="#7AAA61" transform="translate(292,371)"/>
<path d="M0 0 C-3.33979496 2.22652997 -6.79338073 3.64941252 -10.5 5.125 C-11.17675781 5.40214844 -11.85351562 5.67929688 -12.55078125 5.96484375 C-15.5154285 7.15187214 -17.77680496 8 -21 8 C-21 7.01 -21 6.02 -21 5 C-6.62956204 -1.57846715 -6.62956204 -1.57846715 0 0 Z " fill="#A2C7C5" transform="translate(238,199)"/>
<path d="M0 0 C0.66 0.33 1.32 0.66 2 1 C-1.61328125 5.6875 -1.61328125 5.6875 -3 7 C-3.99 7 -4.98 7 -6 7 C-6.144375 7.61875 -6.28875 8.2375 -6.4375 8.875 C-7 11 -7 11 -8 13 C-7.34 13.33 -6.68 13.66 -6 14 C-3 16 -3 16 -2.3125 18.625 C-2.1578125 19.800625 -2.1578125 19.800625 -2 21 C-3.13199353 20.0919838 -4.25532363 19.17316174 -5.375 18.25 C-6.00148438 17.73953125 -6.62796875 17.2290625 -7.2734375 16.703125 C-9.08312318 14.91800519 -10.00117455 13.32050356 -11 11 C-9.92173635 9.72486237 -8.83714481 8.45507431 -7.75 7.1875 C-7.14671875 6.47980469 -6.5434375 5.77210938 -5.921875 5.04296875 C-4.07629602 3.08110329 -2.20054668 1.54330375 0 0 Z " fill="#9FBC94" transform="translate(285,294)"/>
<path d="M0 0 C0.66 0.33 1.32 0.66 2 1 C1.01 1.33 0.02 1.66 -1 2 C-1.26039063 2.59167969 -1.52078125 3.18335938 -1.7890625 3.79296875 C-3.5522001 7.00642922 -6.32080841 8.47258502 -9.375 10.3125 C-9.9525 10.68439453 -10.53 11.05628906 -11.125 11.43945312 C-15.46347367 14.09899692 -15.46347367 14.09899692 -18.19775391 13.59448242 C-18.79249512 13.39830322 -19.38723633 13.20212402 -20 13 C-17.60512849 11.39438174 -15.20914587 9.79046593 -12.8125 8.1875 C-12.13896484 7.73568359 -11.46542969 7.28386719 -10.77148438 6.81835938 C-8.85344605 5.5365484 -6.92846309 4.2660576 -5 3 C-3.58267578 2.06607422 -3.58267578 2.06607422 -2.13671875 1.11328125 C-1.07904297 0.56220703 -1.07904297 0.56220703 0 0 Z " fill="#5D6A77" transform="translate(227,131)"/>
<path d="M0 0 C3.65316671 1.24976756 4.78065836 1.67098753 7 5 C4.36 4.34 1.72 3.68 -1 3 C-0.835 3.763125 -0.67 4.52625 -0.5 5.3125 C0 8 0 8 0 11 C-0.556875 10.649375 -1.11375 10.29875 -1.6875 9.9375 C-4.53886783 8.78154007 -6.08517222 9.19032562 -9 10 C-8.06409496 8.8944811 -7.12620142 7.79064547 -6.1875 6.6875 C-5.66542969 6.07261719 -5.14335937 5.45773437 -4.60546875 4.82421875 C-3.12827531 3.14575321 -1.59960869 1.56117966 0 0 Z " fill="#8CBAB7" transform="translate(223,293)"/>
<path d="M0 0 C2.76276177 0.52268466 5.3260876 1.10869587 8 2 C8 2.66 8 3.32 8 4 C1.5 8 1.5 8 -3 8 C-3.33 7.01 -3.66 6.02 -4 5 C-3.34 4.360625 -2.68 3.72125 -2 3.0625 C0.11602431 1.35917681 0.11602431 1.35917681 0 0 Z " fill="#2B4258" transform="translate(315,228)"/>
<path d="M0 0 C0.99 0.33 1.98 0.66 3 1 C3 1.66 3 2.32 3 3 C5.51179038 6.55379978 5.51179038 6.55379978 9 9 C9 9.99 9 10.98 9 12 C10.32 12.33 11.64 12.66 13 13 C13 13.66 13 14.32 13 15 C8.76432576 14.4940998 6.64065715 12.1064672 3.6875 9.1875 C2.78386719 8.31480469 1.88023437 7.44210937 0.94921875 6.54296875 C-1 4 -1 4 -0.79296875 1.67578125 C-0.53128906 1.12277344 -0.26960937 0.56976563 0 0 Z " fill="#7FACAA" transform="translate(161,324)"/>
<path d="M0 0 C-1.16757737 3.32310483 -2.14948857 5.83361132 -5 8 C-5.99 8 -6.98 8 -8 8 C-8 8.66 -8 9.32 -8 10 C-10.31 10.33 -12.62 10.66 -15 11 C-14 9 -14 9 -12.16015625 8.1015625 C-9.01472593 6.49756368 -7.04621467 4.03929886 -4.68359375 1.4609375 C-3 0 -3 0 0 0 Z " fill="#96BD85" transform="translate(317,302)"/>
<path d="M0 0 C0.66 0.99 1.32 1.98 2 3 C-0.76628111 4.19922024 -3.537155 5.38460499 -6.3125 6.5625 C-7.49102539 7.07586914 -7.49102539 7.07586914 -8.69335938 7.59960938 C-9.45068359 7.91865234 -10.20800781 8.23769531 -10.98828125 8.56640625 C-11.68477783 8.86490479 -12.38127441 9.16340332 -13.09887695 9.47094727 C-15 10 -15 10 -18 9 C-12.48903714 4.86677786 -6.3789868 2.51856437 0 0 Z " fill="#525D6B" transform="translate(206,228)"/>
<path d="M0 0 C0 1.32 0 2.64 0 4 C0.99 4 1.98 4 3 4 C3.12375 4.61875 3.2475 5.2375 3.375 5.875 C3.87197356 8.19120832 3.87197356 8.19120832 6 10 C3.36 10.66 0.72 11.32 -2 12 C-1.67 10.68 -1.34 9.36 -1 8 C-1.66 8 -2.32 8 -3 8 C-2.67 6.35 -2.34 4.7 -2 3 C-2.99 2.34 -3.98 1.68 -5 1 C-2 0 -2 0 0 0 Z " fill="#405465" transform="translate(210,218)"/>
<path d="M0 0 C0 0.66 0 1.32 0 2 C-2.62353518 3.00399524 -5.24867795 4.00334445 -7.875 5 C-8.62136719 5.28617188 -9.36773437 5.57234375 -10.13671875 5.8671875 C-15.7734375 8 -15.7734375 8 -18 8 C-17 5 -17 5 -14.453125 3.61328125 C-13.39609375 3.18402344 -12.3390625 2.75476563 -11.25 2.3125 C-10.20328125 1.87550781 -9.1565625 1.43851563 -8.078125 0.98828125 C-5.1565335 0.05025758 -3.03646256 -0.20805392 0 0 Z " fill="#4F5B68" transform="translate(178,241)"/>
<path d="M0 0 C5.63098876 3.00064027 10.88084541 6.18786361 16 10 C14.35546875 10.69921875 14.35546875 10.69921875 12 11 C9.23828125 9.70703125 9.23828125 9.70703125 6.3125 7.8125 C5.33925781 7.20019531 4.36601562 6.58789062 3.36328125 5.95703125 C0.91107293 3.92635957 0.29604601 3.10504071 0 0 Z " fill="#545F6D" transform="translate(280,136)"/>
<path d="M0 0 C2.5 0.3125 2.5 0.3125 5 1 C5.99 1 6.98 1 8 1 C8 1.66 8 2.32 8 3 C8.99 3.33 9.98 3.66 11 4 C10.34 4.66 9.68 5.32 9 6 C5.33333333 6 1.66666667 6 -2 6 C-2.33 5.01 -2.66 4.02 -3 3 C-1.8125 1.4375 -1.8125 1.4375 0 0 Z " fill="#2A3F54" transform="translate(321,235)"/>
<path d="M0 0 C5.85659906 1.66153012 11.4590134 3.47041916 17 6 C16.67 6.66 16.34 7.32 16 8 C11.94180817 7.34496718 8.46028718 6.05440879 4.6875 4.4375 C3.61886719 3.98246094 2.55023438 3.52742187 1.44921875 3.05859375 C0.64097656 2.70925781 -0.16726563 2.35992187 -1 2 C-0.67 1.34 -0.34 0.68 0 0 Z " fill="#5B6573" transform="translate(268,209)"/>
<path d="M0 0 C2.31 0 4.62 0 7 0 C7 0.66 7 1.32 7 2 C6.071875 2.268125 5.14375 2.53625 4.1875 2.8125 C1.02141251 3.69741878 1.02141251 3.69741878 -0.4375 5.6875 C-2 7 -2 7 -5.6875 6.6875 C-6.780625 6.460625 -7.87375 6.23375 -9 6 C-9 5.01 -9 4.02 -9 3 C-6.69 3.33 -4.38 3.66 -2 4 C-2 3.34 -2 2.68 -2 2 C-1.34 2 -0.68 2 0 2 C0 1.34 0 0.68 0 0 Z " fill="#213343" transform="translate(338,239)"/>
<path d="M0 0 C4.74916388 3.20568562 4.74916388 3.20568562 5.75 6.375 C4.5654964 10.5207626 1.37213913 12.49670284 -2 15 C-2 14.01 -2 13.02 -2 12 C-1.34 12 -0.68 12 0 12 C0 11.01 0 10.02 0 9 C0.66 9 1.32 9 2 9 C1.855625 8.443125 1.71125 7.88625 1.5625 7.3125 C0.97230872 4.88615805 0.476571 2.45093655 0 0 Z " fill="#9DB88E" transform="translate(329,336)"/>
<path d="M0 0 C1.33333333 0.33333333 2.66666667 0.66666667 4 1 C5.66623639 1.03786901 7.33397597 1.04627845 9 1 C-0.61538462 6 -0.61538462 6 -5 6 C-5.33 4.35 -5.66 2.7 -6 1 C-4.7934375 1.0309375 -4.7934375 1.0309375 -3.5625 1.0625 C-1.06645115 1.29633621 -1.06645115 1.29633621 0 0 Z " fill="#9BC4C2" transform="translate(243,193)"/>
<path d="M0 0 C0.598125 0.309375 1.19625 0.61875 1.8125 0.9375 C4.08956772 2.10209704 4.08956772 2.10209704 7 3 C7.33 2.34 7.66 1.68 8 1 C8.99 1 9.98 1 11 1 C10.3125 3.4375 10.3125 3.4375 9 6 C6.625 7.0625 6.625 7.0625 4 7 C1.6875 5.25 1.6875 5.25 0 3 C0 2.01 0 1.02 0 0 Z " fill="#91B481" transform="translate(280,347)"/>
<path d="M0 0 C0.33 1.32 0.66 2.64 1 4 C2.65 4.33 4.3 4.66 6 5 C5.67 5.99 5.34 6.98 5 8 C0.89160936 6.54997977 -2.50344613 4.6020866 -6 2 C-6 1.34 -6 0.68 -6 0 C-3.50907189 -1.24546405 -2.58919267 -0.7767578 0 0 Z " fill="#3F515F" transform="translate(272,139)"/>
<path d="M0 0 C0.99 0.33 1.98 0.66 3 1 C3 3 3 5 3 7 C1.35 7.66 -0.3 8.32 -2 9 C-2 8.34 -2 7.68 -2 7 C-2.99 6.67 -3.98 6.34 -5 6 C-4.67 5.34 -4.34 4.68 -4 4 C-3.34 4 -2.68 4 -2 4 C-1.34 2.68 -0.68 1.36 0 0 Z " fill="#2D4254" transform="translate(232,213)"/>
<path d="M0 0 C1.32 0.66 2.64 1.32 4 2 C4 2.99 4 3.98 4 5 C3.236875 5.12375 2.47375 5.2475 1.6875 5.375 C-1.20267136 5.88102792 -1.20267136 5.88102792 -4 8 C-4.99 7.67 -5.98 7.34 -7 7 C-4.69 4.69 -2.38 2.38 0 0 Z " fill="#8CB9B5" transform="translate(169,316)"/>
<path d="M0 0 C1.32 0.66 2.64 1.32 4 2 C3.01 2.495 3.01 2.495 2 3 C1.67 11.58 1.34 20.16 1 29 C0.67 29 0.34 29 0 29 C-0.16729064 25.03092526 -0.32788226 21.06164279 -0.48217773 17.09204102 C-0.53565802 15.74072921 -0.59099194 14.38948948 -0.64819336 13.03833008 C-0.72993571 11.09997011 -0.80453323 9.16131296 -0.87890625 7.22265625 C-0.9260376 6.05484619 -0.97316895 4.88703613 -1.02172852 3.68383789 C-1 1 -1 1 0 0 Z " fill="#16303F" transform="translate(253,131)"/>
<path d="M0 0 C-0.66 0 -1.32 0 -2 0 C-2 1.32 -2 2.64 -2 4 C-2.66 4 -3.32 4 -4 4 C-4 4.66 -4 5.32 -4 6 C-5.65 6 -7.3 6 -9 6 C-9.33 4.68 -9.66 3.36 -10 2 C-3.375 -1.125 -3.375 -1.125 0 0 Z " fill="#465669" transform="translate(200,223)"/>
<path d="M0 0 C0.66 0.433125 1.32 0.86625 2 1.3125 C2 2.3025 2 3.2925 2 4.3125 C1.67 3.9825 1.34 3.6525 1 3.3125 C-3.81183448 2.62509507 -6.17142767 4.58995968 -10 7.3125 C-10.66 7.3125 -11.32 7.3125 -12 7.3125 C-10.65774581 3.28573744 -8.61057724 2.32221934 -5.078125 0.1875 C-3 -0.6875 -3 -0.6875 0 0 Z " fill="#1A2434" transform="translate(252,118.6875)"/>
<path d="M0 0 C0.33 0.66 0.66 1.32 1 2 C1.33 2.33 1.66 2.66 2 3 C2 3.66 2 4.32 2 5 C-1.28976808 6.09658936 -2.71303767 5.79953138 -6 5 C-5.67 6.98 -5.34 8.96 -5 11 C-5.66 11 -6.32 11 -7 11 C-7 8.69 -7 6.38 -7 4 C-4.69 2.68 -2.38 1.36 0 0 Z " fill="#384A58" transform="translate(204,146)"/>
<path d="M0 0 C0.33 0.66 0.66 1.32 1 2 C1.66 2 2.32 2 3 2 C3 2.66 3 3.32 3 4 C2.34 4 1.68 4 1 4 C0.67 5.65 0.34 7.3 0 9 C-0.33 8.34 -0.66 7.68 -1 7 C-1.66 7 -2.32 7 -3 7 C-4.125 3.25 -4.125 3.25 -3 1 C-2.01 0.67 -1.02 0.34 0 0 Z " fill="#273C52" transform="translate(183,229)"/>
<path d="M0 0 C3.59905908 0.55550695 4.99909799 1.74887248 7.25 4.5625 C8.03117187 5.52349609 8.03117187 5.52349609 8.828125 6.50390625 C9.21484375 6.99761719 9.6015625 7.49132812 10 8 C9.01 8 8.02 8 7 8 C7 7.34 7 6.68 7 6 C6.01 6.33 5.02 6.66 4 7 C3.34 6.34 2.68 5.68 2 5 C2 3.68 2 2.36 2 1 C1.34 0.67 0.68 0.34 0 0 Z " fill="#9CC68A" transform="translate(322,294)"/>
<path d="M0 0 C1.62723299 0.45034123 3.25173664 0.91055354 4.875 1.375 C5.77992188 1.63023437 6.68484375 1.88546875 7.6171875 2.1484375 C10 3 10 3 12 5 C8.69564916 6.12377697 6.9493138 5.89554742 3.75 4.5625 C3.04359375 4.27503906 2.3371875 3.98757812 1.609375 3.69140625 C1.07828125 3.46324219 0.5471875 3.23507813 0 3 C0 2.01 0 1.02 0 0 Z " fill="#52606E" transform="translate(293,219)"/>
<path d="M0 0 C0.598125 0.165 1.19625 0.33 1.8125 0.5 C4.11344336 1.1114124 4.11344336 1.1114124 7 1 C8.6875 2.5 8.6875 2.5 10 4 C9.01 4 8.02 4 7 4 C4.99690671 4.31421071 2.99628664 4.6451046 1 5 C0.67 3.35 0.34 1.7 0 0 Z " fill="#223A4C" transform="translate(250,121)"/>
<path d="M0 0 C0.66 0.33 1.32 0.66 2 1 C0.625 3.5 0.625 3.5 -1 6 C-1.66 6 -2.32 6 -3 6 C-3.33 7.32 -3.66 8.64 -4 10 C-4.33 9.01 -4.66 8.02 -5 7 C-3.58511552 4.23760649 -2.19636905 2.19636905 0 0 Z M-9 12 C-8.01 12.495 -8.01 12.495 -7 13 C-7.99 13.495 -7.99 13.495 -9 14 C-9 13.34 -9 12.68 -9 12 Z " fill="#7EB5B1" transform="translate(207,311)"/>
<path d="M0 0 C0.99 0.33 1.98 0.66 3 1 C2.04578192 2.14926266 1.08647955 3.29430541 0.125 4.4375 C-0.40867187 5.07558594 -0.94234375 5.71367187 -1.4921875 6.37109375 C-3 8 -3 8 -5 9 C-4.75 6.625 -4.75 6.625 -4 4 C-1.9375 2.6875 -1.9375 2.6875 0 2 C0 1.34 0 0.68 0 0 Z " fill="#B1CAA4" transform="translate(325,312)"/>
<path d="M0 0 C0.33 0.66 0.66 1.32 1 2 C-0.3125 4.625 -0.3125 4.625 -2 7 C-2.66 7 -3.32 7 -4 7 C-4 7.66 -4 8.32 -4 9 C-5.32 9.33 -6.64 9.66 -8 10 C-7.04367001 8.70684939 -6.08486149 7.41553147 -5.125 6.125 C-4.59132812 5.40570313 -4.05765625 4.68640625 -3.5078125 3.9453125 C-2 2 -2 2 0 0 Z " fill="#97BEBC" transform="translate(202,316)"/>
<path d="M0 0 C0.33 0.66 0.66 1.32 1 2 C0.34 2 -0.32 2 -1 2 C-1.33 2.99 -1.66 3.98 -2 5 C-3.65 5 -5.3 5 -7 5 C-7.33 4.01 -7.66 3.02 -8 2 C-5.36 1.34 -2.72 0.68 0 0 Z " fill="#203042" transform="translate(175,232)"/>
<path d="M0 0 C1.9375 0.625 1.9375 0.625 4 2 C4.75 5.125 4.75 5.125 5 8 C3.02 6.35 1.04 4.7 -1 3 C-0.67 2.01 -0.34 1.02 0 0 Z " fill="#A5CBC8" transform="translate(176,341)"/>
<path d="M0 0 C4.24822374 0.47202486 6.19989709 2.96655518 9 6 C8.67 6.99 8.34 7.98 8 9 C5.06799526 6.14723863 2.35684596 3.34920216 0 0 Z " fill="#7DA363" transform="translate(320,330)"/>
<path d="M0 0 C1.98 0.495 1.98 0.495 4 1 C3.34 2.65 2.68 4.3 2 6 C2.66 6 3.32 6 4 6 C3.67 7.32 3.34 8.64 3 10 C1.68 9.67 0.36 9.34 -1 9 C-0.4740625 7.329375 -0.4740625 7.329375 0.0625 5.625 C1.37239331 2.19735524 1.37239331 2.19735524 0 0 Z " fill="#21364A" transform="translate(205,220)"/>
<path d="M0 0 C5.78461538 4.30769231 5.78461538 4.30769231 6.875 7.8125 C6.936875 8.8953125 6.936875 8.8953125 7 10 C6.67 9.34 6.34 8.68 6 8 C5.01 7.67 4.02 7.34 3 7 C1.3125 5.6875 1.3125 5.6875 0 4 C0 2.68 0 1.36 0 0 Z " fill="#9DBD8F" transform="translate(292,300)"/>
<path d="M0 0 C1.43836751 0.11458693 2.87570966 0.24209116 4.3125 0.375 C5.51326172 0.47941406 5.51326172 0.47941406 6.73828125 0.5859375 C9 1 9 1 12 3 C12 3.66 12 4.32 12 5 C10.56068883 4.54738642 9.12361001 4.08767021 7.6875 3.625 C6.88699219 3.36976563 6.08648437 3.11453125 5.26171875 2.8515625 C3 2 3 2 0 0 Z " fill="#626D76" transform="translate(330,245)"/>
<path d="M0 0 C3.66881155 0.70554068 6.70450534 2.27735506 10 4 C10 4.33 10 4.66 10 5 C6.53058454 4.54177532 3.32604951 4.10868317 0 3 C0 2.01 0 1.02 0 0 Z " fill="#2B3A49" transform="translate(259,215)"/>
<path d="M0 0 C0.33 1.65 0.66 3.3 1 5 C-5.875 2.25 -5.875 2.25 -7 0 C-3.86650268 -1.04449911 -3.01031744 -0.93423645 0 0 Z " fill="#2C3A46" transform="translate(302,210)"/>
<path d="M0 0 C0.33 0.66 0.66 1.32 1 2 C-2.81756824 3.37432457 -6.07255329 2.67975039 -10 2 C-10 1.34 -10 0.68 -10 0 C-6.26840331 -1.24386556 -3.81984796 -0.77811718 0 0 Z " fill="#182736" transform="translate(255,204)"/>
<path d="M0 0 C-0.33 1.65 -0.66 3.3 -1 5 C-2.32 4.67 -3.64 4.34 -5 4 C-5 3.34 -5 2.68 -5 2 C-5.66 1.34 -6.32 0.68 -7 0 C-3.86650268 -1.04449911 -3.01031744 -0.93423645 0 0 Z " fill="#3A5062" transform="translate(207,221)"/>
<path d="M0 0 C0.33 1.32 0.66 2.64 1 4 C-0.9375 6.25 -0.9375 6.25 -3 8 C-3.99 7.67 -4.98 7.34 -6 7 C-4.02 4.69 -2.04 2.38 0 0 Z " fill="#A0C5C2" transform="translate(213,303)"/>
<path d="M0 0 C0.99 0.33 1.98 0.66 3 1 C3.1875 3.375 3.1875 3.375 3 6 C2.01 6.66 1.02 7.32 0 8 C-0.79953138 4.71303767 -1.09658936 3.28976808 0 0 Z " fill="#8AB07D" transform="translate(331,302)"/>
<path d="M0 0 C4.23092172 -0.36265043 6.62637846 0.39749195 10 3 C10 3.99 10 4.98 10 6 C9.01 5.67 8.02 5.34 7 5 C7 4.34 7 3.68 7 3 C4.69 2.67 2.38 2.34 0 2 C0 1.34 0 0.68 0 0 Z " fill="#7FB6B1" transform="translate(222,296)"/>
<path d="M0 0 C0.33 0.99 0.66 1.98 1 3 C-5.625 6.125 -5.625 6.125 -9 5 C-3.375 1.125 -3.375 1.125 0 0 Z " fill="#606A77" transform="translate(197,232)"/>
<path d="M0 0 C2.76276177 0.52268466 5.3260876 1.10869587 8 2 C8 2.66 8 3.32 8 4 C4.625 4.125 4.625 4.125 1 4 C0.34 3.34 -0.32 2.68 -1 2 C-0.67 1.34 -0.34 0.68 0 0 Z " fill="#3B4959" transform="translate(315,228)"/>
<path d="M0 0 C0.66 0.66 1.32 1.32 2 2 C0.35 3.98 -1.3 5.96 -3 8 C-3.66 7.01 -4.32 6.02 -5 5 C-4.01 4.67 -3.02 4.34 -2 4 C-0.79117904 1.99983534 -0.79117904 1.99983534 0 0 Z " fill="#9FC7C6" transform="translate(195,344)"/>
<path d="M0 0 C3.65316671 1.24976756 4.78065836 1.67098753 7 5 C5.1128125 4.7525 5.1128125 4.7525 3.1875 4.5 C0.73543415 4.17841759 -1.51650694 4 -4 4 C-2.68 2.68 -1.36 1.36 0 0 Z " fill="#B2CDCC" transform="translate(223,293)"/>
<path d="M0 0 C2.31 0.33 4.62 0.66 7 1 C7 1.99 7 2.98 7 4 C4.69 3.67 2.38 3.34 0 3 C0 2.01 0 1.02 0 0 Z " fill="#243445" transform="translate(346,241)"/>
<path d="M0 0 C1.65 0 3.3 0 5 0 C4.01 0.33 3.02 0.66 2 1 C2 1.66 2 2.32 2 3 C2.66 3.33 3.32 3.66 4 4 C4 4.66 4 5.32 4 6 C3.01 6.33 2.02 6.66 1 7 C1 6.01 1 5.02 1 4 C0.34 4 -0.32 4 -1 4 C-0.67 2.68 -0.34 1.36 0 0 Z " fill="#21354D" transform="translate(189,226)"/>
<path d="M0 0 C2.96175123 0.61277612 4.38058783 1.25372522 7 3 C7.6875 5.625 7.6875 5.625 8 8 C6.85073734 7.04578192 5.70569459 6.08647955 4.5625 5.125 C3.92441406 4.59132813 3.28632813 4.05765625 2.62890625 3.5078125 C1 2 1 2 0 0 Z " fill="#B6CD9D" transform="translate(275,307)"/>
<path d="M0 0 C0 2.92828926 -0.13970066 5.20402714 -1 8 C-3.046875 9.15234375 -3.046875 9.15234375 -5 10 C-4.55090939 8.51800098 -4.09043436 7.03944764 -3.625 5.5625 C-3.36976563 4.73878906 -3.11453125 3.91507812 -2.8515625 3.06640625 C-2 1 -2 1 0 0 Z " fill="#7BB7B2" transform="translate(216,302)"/>
<path d="M0 0 C1.485 0.99 1.485 0.99 3 2 C1.25 6.875 1.25 6.875 -1 8 C-1.125 2.25 -1.125 2.25 0 0 Z " fill="#9AC3C2" transform="translate(232,300)"/>
<path d="M0 0 C0.33 0.66 0.66 1.32 1 2 C-0.4375 4.625 -0.4375 4.625 -2 7 C-3.32 6.67 -4.64 6.34 -6 6 C-4.02 4.02 -2.04 2.04 0 0 Z " fill="#90B682" transform="translate(321,295)"/>
<path d="M0 0 C0 0.99 0 1.98 0 3 C-3.75 4.125 -3.75 4.125 -6 3 C-6 2.01 -6 1.02 -6 0 C-3 -1 -3 -1 0 0 Z " fill="#1E2D3E" transform="translate(335,235)"/>
<path d="M0 0 C0.66 0.33 1.32 0.66 2 1 C1.67 1.99 1.34 2.98 1 4 C-0.8125 4.8125 -0.8125 4.8125 -3 5 C-5.25 4.0625 -5.25 4.0625 -7 3 C-4.69631264 1.93347808 -2.35981813 0.93578995 0 0 Z " fill="#546170" transform="translate(187,226)"/>
<path d="M0 0 C0.33 0.99 0.66 1.98 1 3 C-1.97 3.66 -4.94 4.32 -8 5 C-7.67 4.01 -7.34 3.02 -7 2 C-4.56723614 0.81480735 -2.71982714 0 0 0 Z " fill="#3A4A5A" transform="translate(246,213)"/>
<path d="M0 0 C1 2 1 2 0.375 4.0625 C-1 6 -1 6 -3.625 6.75 C-4.800625 6.87375 -4.800625 6.87375 -6 7 C-4.02 4.69 -2.04 2.38 0 0 Z " fill="#BACFAE" transform="translate(314,302)"/>
<path d="M0 0 C1.32 1.32 2.64 2.64 4 4 C3.67 4.66 3.34 5.32 3 6 C1.35 5.67 -0.3 5.34 -2 5 C-1.34 4.67 -0.68 4.34 0 4 C-0.33 3.01 -0.66 2.02 -1 1 C-0.67 0.67 -0.34 0.34 0 0 Z " fill="#4B5B6A" transform="translate(299,228)"/>
<path d="M0 0 C1.0828125 0.37125 1.0828125 0.37125 2.1875 0.75 C-0.07435454 3.01185454 -1.78233561 3.78921617 -4.8125 4.75 C-5.8025 4.42 -6.7925 4.09 -7.8125 3.75 C-3.50480769 -0.31153846 -3.50480769 -0.31153846 0 0 Z " fill="#525F6A" transform="translate(225.8125,221.25)"/>
<path d="M0 0 C1.98 0.99 1.98 0.99 4 2 C4 3.32 4 4.64 4 6 C2.68 6.33 1.36 6.66 0 7 C0 4.69 0 2.38 0 0 Z " fill="#3D4F5C" transform="translate(197,208)"/>
<path d="M0 0 C0.598125 0.20625 1.19625 0.4125 1.8125 0.625 C0.1625 2.275 -1.4875 3.925 -3.1875 5.625 C-3.8475 4.305 -4.5075 2.985 -5.1875 1.625 C-2.1875 -0.375 -2.1875 -0.375 0 0 Z " fill="#465263" transform="translate(237.1875,126.375)"/>
<path d="M0 0 C0.33 0.66 0.66 1.32 1 2 C2.32 2 3.64 2 5 2 C4.67 2.99 4.34 3.98 4 5 C2.125 4.6875 2.125 4.6875 0 4 C-0.66 3.01 -1.32 2.02 -2 1 C-1.34 0.67 -0.68 0.34 0 0 Z " fill="#97B183" transform="translate(321,349)"/>
<path d="M0 0 C-1.125 1.5625 -1.125 1.5625 -3 3 C-6.1875 2.6875 -6.1875 2.6875 -9 2 C-5.945634 -1.054366 -3.9532319 -1.22686507 0 0 Z " fill="#4A5568" transform="translate(181,231)"/>
<path d="M0 0 C0.66 0.99 1.32 1.98 2 3 C-0.97 5.475 -0.97 5.475 -4 8 C-4 7.01 -4 6.02 -4 5 C-3.34 5 -2.68 5 -2 5 C-2 4.01 -2 3.02 -2 2 C-1.34 2 -0.68 2 0 2 C0 1.34 0 0.68 0 0 Z " fill="#91B47D" transform="translate(331,343)"/>
<path d="M0 0 C0.66 0 1.32 0 2 0 C2 0.99 2 1.98 2 3 C3.32 3.33 4.64 3.66 6 4 C6 4.66 6 5.32 6 6 C3.11424181 5.60196439 2.17810487 5.20990931 0.25 2.9375 C-0.1625 2.298125 -0.575 1.65875 -1 1 C-0.67 0.67 -0.34 0.34 0 0 Z " fill="#84B5B0" transform="translate(168,333)"/>
<path d="M0 0 C0.66 0.99 1.32 1.98 2 3 C1.125 5.6875 1.125 5.6875 0 8 C-0.66 8 -1.32 8 -2 8 C-2 6.35 -2 4.7 -2 3 C-1.34 3 -0.68 3 0 3 C0 2.01 0 1.02 0 0 Z " fill="#7DB6B2" transform="translate(205,329)"/>
<path d="M0 0 C3.37503669 1.1858237 5.64722731 2.27573689 8 5 C5.36 4.67 2.72 4.34 0 4 C0 2.68 0 1.36 0 0 Z " fill="#717C86" transform="translate(268,129)"/>
<path d="" fill="#FFFFFF" transform="translate(0,0)"/>
<path d="" fill="#000000" transform="translate(0,0)"/>
</svg>
